<?xml version="1.0" encoding="UTF-8" standalone="no"?>
<!DOCTYPE svg PUBLIC "-//W3C//DTD SVG 1.1//EN" "http://www.w3.org/Graphics/SVG/1.1/DTD/svg11.dtd">
<svg width="100%" height="100%" viewBox="0 0 11112 11112" version="1.1" xmlns="http://www.w3.org/2000/svg" xmlns:xlink="http://www.w3.org/1999/xlink" xml:space="preserve" xmlns:serif="http://www.serif.com/" style="fill-rule:evenodd;clip-rule:evenodd;stroke-linejoin:round;stroke-miterlimit:2;">
    <g id="Layer1">
        <g transform="matrix(1,0,0,1,-633.284,80.7808)">
            <g transform="matrix(2977.78,0,0,2977.78,1081.69,6253.69)">
                <path d="M0.515,-0.196C0.521,-0.196 0.525,-0.194 0.529,-0.19C0.532,-0.186 0.534,-0.181 0.537,-0.177C0.539,-0.174 0.542,-0.166 0.547,-0.156C0.553,-0.145 0.558,-0.133 0.564,-0.12C0.571,-0.107 0.576,-0.095 0.58,-0.085C0.585,-0.075 0.587,-0.069 0.587,-0.066C0.587,-0.061 0.584,-0.055 0.578,-0.05C0.563,-0.038 0.543,-0.027 0.519,-0.018C0.495,-0.01 0.47,-0.003 0.445,0.001C0.42,0.005 0.398,0.007 0.377,0.007C0.306,0.007 0.244,-0.008 0.193,-0.039C0.141,-0.07 0.102,-0.112 0.075,-0.166C0.048,-0.22 0.034,-0.283 0.034,-0.353C0.034,-0.419 0.047,-0.479 0.071,-0.532C0.096,-0.585 0.132,-0.627 0.18,-0.658C0.228,-0.689 0.287,-0.704 0.357,-0.704C0.388,-0.704 0.422,-0.7 0.459,-0.692C0.496,-0.683 0.528,-0.671 0.554,-0.653C0.558,-0.651 0.561,-0.649 0.563,-0.646C0.565,-0.643 0.566,-0.639 0.566,-0.635C0.566,-0.632 0.564,-0.626 0.56,-0.614C0.555,-0.603 0.55,-0.59 0.544,-0.575C0.538,-0.561 0.532,-0.547 0.527,-0.535C0.522,-0.523 0.518,-0.515 0.517,-0.511C0.515,-0.507 0.512,-0.503 0.51,-0.5C0.507,-0.496 0.503,-0.494 0.498,-0.494C0.491,-0.494 0.483,-0.498 0.471,-0.506C0.46,-0.514 0.447,-0.522 0.432,-0.53C0.417,-0.538 0.4,-0.542 0.382,-0.542C0.348,-0.542 0.319,-0.533 0.295,-0.514C0.272,-0.495 0.254,-0.471 0.242,-0.442C0.23,-0.413 0.224,-0.382 0.224,-0.352C0.224,-0.317 0.23,-0.285 0.242,-0.255C0.253,-0.225 0.271,-0.201 0.296,-0.182C0.32,-0.164 0.352,-0.154 0.39,-0.154C0.409,-0.154 0.427,-0.157 0.444,-0.163C0.461,-0.169 0.477,-0.176 0.493,-0.187C0.496,-0.189 0.5,-0.191 0.503,-0.193C0.507,-0.195 0.511,-0.196 0.515,-0.196Z" style="fill:#e0e6ea;fill-rule:nonzero;"/>
            </g>
            <g transform="matrix(2977.78,0,0,2977.78,2936.99,6253.69)">
                <path d="M0.026,-0.234C0.026,-0.284 0.036,-0.327 0.056,-0.365C0.076,-0.404 0.104,-0.434 0.14,-0.456C0.177,-0.477 0.22,-0.488 0.271,-0.488C0.32,-0.488 0.362,-0.477 0.397,-0.456C0.431,-0.434 0.458,-0.404 0.476,-0.366C0.494,-0.329 0.503,-0.286 0.503,-0.239C0.503,-0.19 0.494,-0.146 0.476,-0.108C0.458,-0.07 0.432,-0.04 0.396,-0.019C0.361,0.003 0.318,0.014 0.267,0.014C0.191,0.014 0.132,-0.009 0.089,-0.054C0.047,-0.099 0.026,-0.16 0.026,-0.234ZM0.196,-0.244C0.196,-0.23 0.198,-0.216 0.202,-0.2C0.207,-0.185 0.214,-0.171 0.224,-0.16C0.234,-0.149 0.248,-0.144 0.264,-0.144C0.283,-0.144 0.297,-0.149 0.307,-0.16C0.317,-0.171 0.324,-0.184 0.328,-0.2C0.332,-0.216 0.334,-0.231 0.334,-0.246C0.334,-0.26 0.332,-0.275 0.328,-0.29C0.324,-0.305 0.317,-0.318 0.307,-0.328C0.297,-0.338 0.284,-0.343 0.267,-0.343C0.249,-0.343 0.235,-0.338 0.225,-0.327C0.215,-0.317 0.207,-0.304 0.203,-0.289C0.198,-0.274 0.196,-0.259 0.196,-0.244Z" style="fill:#e0e6ea;fill-rule:nonzero;"/>
            </g>
            <g transform="matrix(2977.78,0,0,2977.78,4511.66,6253.69)">
                <path d="M0.225,0.014C0.178,0.014 0.14,0.002 0.111,-0.022C0.082,-0.047 0.061,-0.078 0.047,-0.115C0.033,-0.153 0.026,-0.193 0.026,-0.234C0.026,-0.279 0.034,-0.32 0.048,-0.359C0.063,-0.397 0.086,-0.428 0.117,-0.452C0.148,-0.476 0.188,-0.488 0.238,-0.488C0.283,-0.488 0.325,-0.473 0.363,-0.444C0.364,-0.443 0.366,-0.442 0.367,-0.441C0.369,-0.44 0.37,-0.439 0.372,-0.439C0.375,-0.439 0.376,-0.441 0.376,-0.444C0.377,-0.447 0.377,-0.449 0.377,-0.45L0.378,-0.699C0.378,-0.716 0.387,-0.724 0.403,-0.724L0.522,-0.724C0.539,-0.724 0.548,-0.715 0.548,-0.698C0.548,-0.68 0.548,-0.661 0.547,-0.643C0.546,-0.624 0.546,-0.606 0.545,-0.587C0.545,-0.549 0.544,-0.51 0.544,-0.471C0.544,-0.432 0.543,-0.394 0.543,-0.355C0.543,-0.318 0.544,-0.28 0.544,-0.243C0.544,-0.206 0.545,-0.169 0.545,-0.132C0.546,-0.114 0.546,-0.097 0.547,-0.079C0.547,-0.061 0.547,-0.043 0.547,-0.026C0.547,-0.009 0.539,-0 0.522,-0L0.395,-0C0.385,-0 0.379,-0.004 0.378,-0.011C0.377,-0.019 0.377,-0.026 0.378,-0.034C0.379,-0.042 0.377,-0.045 0.373,-0.045C0.371,-0.045 0.369,-0.045 0.367,-0.043C0.366,-0.042 0.364,-0.041 0.363,-0.04C0.343,-0.022 0.322,-0.009 0.299,-0C0.276,0.009 0.252,0.014 0.225,0.014ZM0.197,-0.244C0.197,-0.218 0.206,-0.195 0.223,-0.176C0.24,-0.157 0.262,-0.147 0.289,-0.147C0.306,-0.147 0.322,-0.151 0.338,-0.157C0.354,-0.164 0.367,-0.174 0.377,-0.188C0.377,-0.209 0.376,-0.229 0.376,-0.249L0.376,-0.309C0.366,-0.323 0.353,-0.333 0.336,-0.339C0.32,-0.345 0.303,-0.348 0.287,-0.348C0.268,-0.348 0.253,-0.343 0.239,-0.332C0.226,-0.322 0.215,-0.309 0.208,-0.293C0.201,-0.277 0.197,-0.261 0.197,-0.244Z" style="fill:#e0e6ea;fill-rule:nonzero;"/>
            </g>
            <g transform="matrix(2977.78,0,0,2977.78,6268.09,6253.69)">
                <path d="M0.276,0.014C0.196,0.014 0.135,-0.007 0.091,-0.049C0.048,-0.091 0.026,-0.152 0.026,-0.232C0.026,-0.282 0.035,-0.326 0.053,-0.365C0.071,-0.403 0.098,-0.433 0.133,-0.456C0.168,-0.478 0.212,-0.489 0.263,-0.489C0.328,-0.489 0.377,-0.471 0.409,-0.434C0.441,-0.398 0.463,-0.35 0.473,-0.29C0.473,-0.288 0.473,-0.286 0.473,-0.284C0.473,-0.274 0.468,-0.267 0.457,-0.263L0.21,-0.178C0.207,-0.177 0.205,-0.175 0.205,-0.172C0.205,-0.171 0.205,-0.17 0.206,-0.168C0.216,-0.15 0.23,-0.136 0.247,-0.128C0.264,-0.119 0.283,-0.115 0.303,-0.115C0.321,-0.115 0.339,-0.118 0.355,-0.124C0.371,-0.129 0.387,-0.136 0.403,-0.144C0.409,-0.147 0.414,-0.148 0.419,-0.148C0.424,-0.148 0.428,-0.147 0.432,-0.143C0.435,-0.14 0.437,-0.136 0.439,-0.131L0.467,-0.063C0.469,-0.06 0.47,-0.056 0.47,-0.052C0.47,-0.048 0.469,-0.045 0.467,-0.042C0.464,-0.039 0.462,-0.037 0.458,-0.034C0.435,-0.018 0.406,-0.006 0.371,0.002C0.336,0.01 0.305,0.014 0.276,0.014ZM0.192,-0.265C0.213,-0.272 0.234,-0.279 0.255,-0.286C0.275,-0.293 0.296,-0.3 0.317,-0.308C0.313,-0.321 0.306,-0.331 0.297,-0.339C0.288,-0.347 0.277,-0.351 0.262,-0.351C0.237,-0.351 0.22,-0.342 0.209,-0.324C0.199,-0.306 0.194,-0.286 0.192,-0.265Z" style="fill:#e0e6ea;fill-rule:nonzero;"/>
            </g>
            <g transform="matrix(2977.78,0,0,2977.78,7759.88,6253.69)">
                <path d="M0.068,-0C0.051,-0 0.042,-0.009 0.042,-0.026C0.042,-0.043 0.043,-0.061 0.043,-0.079C0.044,-0.097 0.045,-0.114 0.045,-0.132C0.046,-0.169 0.046,-0.207 0.046,-0.244C0.047,-0.281 0.047,-0.318 0.047,-0.355C0.047,-0.394 0.047,-0.433 0.046,-0.472C0.046,-0.51 0.045,-0.549 0.044,-0.587C0.044,-0.606 0.044,-0.625 0.043,-0.643C0.042,-0.662 0.042,-0.68 0.042,-0.698C0.042,-0.715 0.05,-0.724 0.067,-0.724L0.182,-0.724C0.198,-0.724 0.206,-0.716 0.207,-0.699C0.208,-0.678 0.208,-0.657 0.208,-0.636C0.208,-0.614 0.208,-0.593 0.208,-0.572C0.208,-0.528 0.208,-0.483 0.208,-0.438L0.208,-0.305C0.208,-0.299 0.21,-0.296 0.214,-0.296C0.215,-0.296 0.217,-0.296 0.219,-0.297C0.258,-0.311 0.294,-0.33 0.327,-0.354C0.359,-0.378 0.381,-0.411 0.393,-0.454C0.395,-0.461 0.398,-0.467 0.402,-0.47C0.405,-0.474 0.411,-0.476 0.419,-0.476L0.551,-0.476C0.557,-0.476 0.563,-0.475 0.568,-0.472C0.573,-0.469 0.575,-0.464 0.575,-0.457C0.575,-0.455 0.575,-0.452 0.574,-0.449C0.565,-0.405 0.549,-0.368 0.525,-0.337C0.501,-0.306 0.472,-0.277 0.438,-0.251C0.435,-0.249 0.434,-0.247 0.434,-0.245C0.434,-0.244 0.438,-0.237 0.446,-0.224C0.454,-0.211 0.464,-0.195 0.476,-0.176C0.489,-0.157 0.501,-0.138 0.514,-0.119C0.526,-0.1 0.563,-0.044 0.566,-0.039C0.569,-0.036 0.571,-0.032 0.573,-0.028C0.575,-0.024 0.576,-0.02 0.576,-0.016C0.576,-0.009 0.572,-0.004 0.565,-0.002C0.557,-0.001 0.551,-0 0.545,-0L0.415,-0C0.407,-0 0.4,-0.003 0.395,-0.01C0.39,-0.015 0.386,-0.021 0.382,-0.027C0.378,-0.033 0.374,-0.039 0.37,-0.044C0.355,-0.064 0.341,-0.084 0.327,-0.104C0.314,-0.124 0.299,-0.143 0.284,-0.162C0.283,-0.164 0.281,-0.166 0.278,-0.166C0.278,-0.166 0.277,-0.165 0.276,-0.165C0.275,-0.165 0.275,-0.164 0.274,-0.164C0.264,-0.16 0.254,-0.156 0.243,-0.153C0.233,-0.15 0.223,-0.146 0.213,-0.142C0.209,-0.14 0.208,-0.138 0.208,-0.135C0.208,-0.118 0.208,-0.099 0.208,-0.08C0.208,-0.06 0.208,-0.042 0.207,-0.025C0.206,-0.008 0.198,-0 0.182,-0L0.068,-0Z" style="fill:#e0e6ea;fill-rule:nonzero;"/>
            </g>
            <g transform="matrix(2977.78,0,0,2977.78,9549.75,6253.69)">
                <path d="M0.026,-0.234C0.026,-0.284 0.036,-0.327 0.056,-0.365C0.076,-0.404 0.104,-0.434 0.14,-0.456C0.177,-0.477 0.22,-0.488 0.271,-0.488C0.32,-0.488 0.362,-0.477 0.397,-0.456C0.431,-0.434 0.458,-0.404 0.476,-0.366C0.494,-0.329 0.503,-0.286 0.503,-0.239C0.503,-0.19 0.494,-0.146 0.476,-0.108C0.458,-0.07 0.432,-0.04 0.396,-0.019C0.361,0.003 0.318,0.014 0.267,0.014C0.191,0.014 0.132,-0.009 0.089,-0.054C0.047,-0.099 0.026,-0.16 0.026,-0.234ZM0.196,-0.244C0.196,-0.23 0.198,-0.216 0.202,-0.2C0.207,-0.185 0.214,-0.171 0.224,-0.16C0.234,-0.149 0.248,-0.144 0.264,-0.144C0.283,-0.144 0.297,-0.149 0.307,-0.16C0.317,-0.171 0.324,-0.184 0.328,-0.2C0.332,-0.216 0.334,-0.231 0.334,-0.246C0.334,-0.26 0.332,-0.275 0.328,-0.29C0.324,-0.305 0.317,-0.318 0.307,-0.328C0.297,-0.338 0.284,-0.343 0.267,-0.343C0.249,-0.343 0.235,-0.338 0.225,-0.327C0.215,-0.317 0.207,-0.304 0.203,-0.289C0.198,-0.274 0.196,-0.259 0.196,-0.244Z" style="fill:#e0e6ea;fill-rule:nonzero;"/>
            </g>
        </g>
        <g id="Layer2">
            <path d="M1914.45,5779.57C2116.69,5624.17 2143.14,5755.58 2209.8,5883.38C2248.48,5957.55 1805.83,5863.05 1914.45,5779.57Z" style="fill:#e0e6ea;fill-opacity:0.99;"/>
            <g transform="matrix(-0.842135,0.539267,-0.539267,-0.842135,6871.99,8581.99)">
                <path d="M1914.45,5779.57C2116.69,5624.17 2143.14,5755.58 2209.8,5883.38C2248.48,5957.55 1805.83,5863.05 1914.45,5779.57Z" style="fill:#e0e6ea;fill-opacity:0.99;"/>
            </g>
            <path d="M6828.11,5910.45C7024.42,5804.97 7065.8,5917.67 7085.65,5990.11" style="fill:#e0e6ea;fill-opacity:0.99;"/>
        </g>
        <g transform="matrix(1,0,0,1,-505.284,80.7808)">
            <g transform="matrix(2977.78,0,0,2977.78,1081.69,6253.69)">
                <path d="M0.515,-0.196C0.521,-0.196 0.525,-0.194 0.529,-0.19C0.532,-0.186 0.534,-0.181 0.537,-0.177C0.539,-0.174 0.542,-0.166 0.547,-0.156C0.553,-0.145 0.558,-0.133 0.564,-0.12C0.571,-0.107 0.576,-0.095 0.58,-0.085C0.585,-0.075 0.587,-0.069 0.587,-0.066C0.587,-0.061 0.584,-0.055 0.578,-0.05C0.563,-0.038 0.543,-0.027 0.519,-0.018C0.495,-0.01 0.47,-0.003 0.445,0.001C0.42,0.005 0.398,0.007 0.377,0.007C0.306,0.007 0.244,-0.008 0.193,-0.039C0.141,-0.07 0.102,-0.112 0.075,-0.166C0.048,-0.22 0.034,-0.283 0.034,-0.353C0.034,-0.419 0.047,-0.479 0.071,-0.532C0.096,-0.585 0.132,-0.627 0.18,-0.658C0.228,-0.689 0.287,-0.704 0.357,-0.704C0.388,-0.704 0.422,-0.7 0.459,-0.692C0.496,-0.683 0.528,-0.671 0.554,-0.653C0.558,-0.651 0.561,-0.649 0.563,-0.646C0.565,-0.643 0.566,-0.639 0.566,-0.635C0.566,-0.632 0.564,-0.626 0.56,-0.614C0.555,-0.603 0.55,-0.59 0.544,-0.575C0.538,-0.561 0.532,-0.547 0.527,-0.535C0.522,-0.523 0.518,-0.515 0.517,-0.511C0.515,-0.507 0.512,-0.503 0.51,-0.5C0.507,-0.496 0.503,-0.494 0.498,-0.494C0.491,-0.494 0.483,-0.498 0.471,-0.506C0.46,-0.514 0.447,-0.522 0.432,-0.53C0.417,-0.538 0.4,-0.542 0.382,-0.542C0.348,-0.542 0.319,-0.533 0.295,-0.514C0.272,-0.495 0.254,-0.471 0.242,-0.442C0.23,-0.413 0.224,-0.382 0.224,-0.352C0.224,-0.317 0.23,-0.285 0.242,-0.255C0.253,-0.225 0.271,-0.201 0.296,-0.182C0.32,-0.164 0.352,-0.154 0.39,-0.154C0.409,-0.154 0.427,-0.157 0.444,-0.163C0.461,-0.169 0.477,-0.176 0.493,-0.187C0.496,-0.189 0.5,-0.191 0.503,-0.193C0.507,-0.195 0.511,-0.196 0.515,-0.196Z" style="fill:#ffdf34;fill-rule:nonzero;"/>
            </g>
            <g transform="matrix(2977.78,0,0,2977.78,2936.99,6253.69)">
                <path d="M0.026,-0.234C0.026,-0.284 0.036,-0.327 0.056,-0.365C0.076,-0.404 0.104,-0.434 0.14,-0.456C0.177,-0.477 0.22,-0.488 0.271,-0.488C0.32,-0.488 0.362,-0.477 0.397,-0.456C0.431,-0.434 0.458,-0.404 0.476,-0.366C0.494,-0.329 0.503,-0.286 0.503,-0.239C0.503,-0.19 0.494,-0.146 0.476,-0.108C0.458,-0.07 0.432,-0.04 0.396,-0.019C0.361,0.003 0.318,0.014 0.267,0.014C0.191,0.014 0.132,-0.009 0.089,-0.054C0.047,-0.099 0.026,-0.16 0.026,-0.234ZM0.196,-0.244C0.196,-0.23 0.198,-0.216 0.202,-0.2C0.207,-0.185 0.214,-0.171 0.224,-0.16C0.234,-0.149 0.248,-0.144 0.264,-0.144C0.283,-0.144 0.297,-0.149 0.307,-0.16C0.317,-0.171 0.324,-0.184 0.328,-0.2C0.332,-0.216 0.334,-0.231 0.334,-0.246C0.334,-0.26 0.332,-0.275 0.328,-0.29C0.324,-0.305 0.317,-0.318 0.307,-0.328C0.297,-0.338 0.284,-0.343 0.267,-0.343C0.249,-0.343 0.235,-0.338 0.225,-0.327C0.215,-0.317 0.207,-0.304 0.203,-0.289C0.198,-0.274 0.196,-0.259 0.196,-0.244Z" style="fill:#ffdf34;fill-rule:nonzero;"/>
            </g>
            <g transform="matrix(2977.78,0,0,2977.78,4511.66,6253.69)">
                <path d="M0.225,0.014C0.178,0.014 0.14,0.002 0.111,-0.022C0.082,-0.047 0.061,-0.078 0.047,-0.115C0.033,-0.153 0.026,-0.193 0.026,-0.234C0.026,-0.279 0.034,-0.32 0.048,-0.359C0.063,-0.397 0.086,-0.428 0.117,-0.452C0.148,-0.476 0.188,-0.488 0.238,-0.488C0.283,-0.488 0.325,-0.473 0.363,-0.444C0.364,-0.443 0.366,-0.442 0.367,-0.441C0.369,-0.44 0.37,-0.439 0.372,-0.439C0.375,-0.439 0.376,-0.441 0.376,-0.444C0.377,-0.447 0.377,-0.449 0.377,-0.45L0.378,-0.699C0.378,-0.716 0.387,-0.724 0.403,-0.724L0.522,-0.724C0.539,-0.724 0.548,-0.715 0.548,-0.698C0.548,-0.68 0.548,-0.661 0.547,-0.643C0.546,-0.624 0.546,-0.606 0.545,-0.587C0.545,-0.549 0.544,-0.51 0.544,-0.471C0.544,-0.432 0.543,-0.394 0.543,-0.355C0.543,-0.318 0.544,-0.28 0.544,-0.243C0.544,-0.206 0.545,-0.169 0.545,-0.132C0.546,-0.114 0.546,-0.097 0.547,-0.079C0.547,-0.061 0.547,-0.043 0.547,-0.026C0.547,-0.009 0.539,-0 0.522,-0L0.395,-0C0.385,-0 0.379,-0.004 0.378,-0.011C0.377,-0.019 0.377,-0.026 0.378,-0.034C0.379,-0.042 0.377,-0.045 0.373,-0.045C0.371,-0.045 0.369,-0.045 0.367,-0.043C0.366,-0.042 0.364,-0.041 0.363,-0.04C0.343,-0.022 0.322,-0.009 0.299,-0C0.276,0.009 0.252,0.014 0.225,0.014ZM0.197,-0.244C0.197,-0.218 0.206,-0.195 0.223,-0.176C0.24,-0.157 0.262,-0.147 0.289,-0.147C0.306,-0.147 0.322,-0.151 0.338,-0.157C0.354,-0.164 0.367,-0.174 0.377,-0.188C0.377,-0.209 0.376,-0.229 0.376,-0.249L0.376,-0.309C0.366,-0.323 0.353,-0.333 0.336,-0.339C0.32,-0.345 0.303,-0.348 0.287,-0.348C0.268,-0.348 0.253,-0.343 0.239,-0.332C0.226,-0.322 0.215,-0.309 0.208,-0.293C0.201,-0.277 0.197,-0.261 0.197,-0.244Z" style="fill:#ffdf34;fill-rule:nonzero;"/>
            </g>
            <g transform="matrix(2977.78,0,0,2977.78,6268.09,6253.69)">
                <path d="M0.276,0.014C0.196,0.014 0.135,-0.007 0.091,-0.049C0.048,-0.091 0.026,-0.152 0.026,-0.232C0.026,-0.282 0.035,-0.326 0.053,-0.365C0.071,-0.403 0.098,-0.433 0.133,-0.456C0.168,-0.478 0.212,-0.489 0.263,-0.489C0.328,-0.489 0.377,-0.471 0.409,-0.434C0.441,-0.398 0.463,-0.35 0.473,-0.29C0.473,-0.288 0.473,-0.286 0.473,-0.284C0.473,-0.274 0.468,-0.267 0.457,-0.263L0.21,-0.178C0.207,-0.177 0.205,-0.175 0.205,-0.172C0.205,-0.171 0.205,-0.17 0.206,-0.168C0.216,-0.15 0.23,-0.136 0.247,-0.128C0.264,-0.119 0.283,-0.115 0.303,-0.115C0.321,-0.115 0.339,-0.118 0.355,-0.124C0.371,-0.129 0.387,-0.136 0.403,-0.144C0.409,-0.147 0.414,-0.148 0.419,-0.148C0.424,-0.148 0.428,-0.147 0.432,-0.143C0.435,-0.14 0.437,-0.136 0.439,-0.131L0.467,-0.063C0.469,-0.06 0.47,-0.056 0.47,-0.052C0.47,-0.048 0.469,-0.045 0.467,-0.042C0.464,-0.039 0.462,-0.037 0.458,-0.034C0.435,-0.018 0.406,-0.006 0.371,0.002C0.336,0.01 0.305,0.014 0.276,0.014ZM0.192,-0.265C0.213,-0.272 0.234,-0.279 0.255,-0.286C0.275,-0.293 0.296,-0.3 0.317,-0.308C0.313,-0.321 0.306,-0.331 0.297,-0.339C0.288,-0.347 0.277,-0.351 0.262,-0.351C0.237,-0.351 0.22,-0.342 0.209,-0.324C0.199,-0.306 0.194,-0.286 0.192,-0.265Z" style="fill:#ffdf34;fill-rule:nonzero;"/>
            </g>
            <g transform="matrix(2977.78,0,0,2977.78,7759.88,6253.69)">
                <path d="M0.068,-0C0.051,-0 0.042,-0.009 0.042,-0.026C0.042,-0.043 0.043,-0.061 0.043,-0.079C0.044,-0.097 0.045,-0.114 0.045,-0.132C0.046,-0.169 0.046,-0.207 0.046,-0.244C0.047,-0.281 0.047,-0.318 0.047,-0.355C0.047,-0.394 0.047,-0.433 0.046,-0.472C0.046,-0.51 0.045,-0.549 0.044,-0.587C0.044,-0.606 0.044,-0.625 0.043,-0.643C0.042,-0.662 0.042,-0.68 0.042,-0.698C0.042,-0.715 0.05,-0.724 0.067,-0.724L0.182,-0.724C0.198,-0.724 0.206,-0.716 0.207,-0.699C0.208,-0.678 0.208,-0.657 0.208,-0.636C0.208,-0.614 0.208,-0.593 0.208,-0.572C0.208,-0.528 0.208,-0.483 0.208,-0.438L0.208,-0.305C0.208,-0.299 0.21,-0.296 0.214,-0.296C0.215,-0.296 0.217,-0.296 0.219,-0.297C0.258,-0.311 0.294,-0.33 0.327,-0.354C0.359,-0.378 0.381,-0.411 0.393,-0.454C0.395,-0.461 0.398,-0.467 0.402,-0.47C0.405,-0.474 0.411,-0.476 0.419,-0.476L0.551,-0.476C0.557,-0.476 0.563,-0.475 0.568,-0.472C0.573,-0.469 0.575,-0.464 0.575,-0.457C0.575,-0.455 0.575,-0.452 0.574,-0.449C0.565,-0.405 0.549,-0.368 0.525,-0.337C0.501,-0.306 0.472,-0.277 0.438,-0.251C0.435,-0.249 0.434,-0.247 0.434,-0.245C0.434,-0.244 0.438,-0.237 0.446,-0.224C0.454,-0.211 0.464,-0.195 0.476,-0.176C0.489,-0.157 0.501,-0.138 0.514,-0.119C0.526,-0.1 0.563,-0.044 0.566,-0.039C0.569,-0.036 0.571,-0.032 0.573,-0.028C0.575,-0.024 0.576,-0.02 0.576,-0.016C0.576,-0.009 0.572,-0.004 0.565,-0.002C0.557,-0.001 0.551,-0 0.545,-0L0.415,-0C0.407,-0 0.4,-0.003 0.395,-0.01C0.39,-0.015 0.386,-0.021 0.382,-0.027C0.378,-0.033 0.374,-0.039 0.37,-0.044C0.355,-0.064 0.341,-0.084 0.327,-0.104C0.314,-0.124 0.299,-0.143 0.284,-0.162C0.283,-0.164 0.281,-0.166 0.278,-0.166C0.278,-0.166 0.277,-0.165 0.276,-0.165C0.275,-0.165 0.275,-0.164 0.274,-0.164C0.264,-0.16 0.254,-0.156 0.243,-0.153C0.233,-0.15 0.223,-0.146 0.213,-0.142C0.209,-0.14 0.208,-0.138 0.208,-0.135C0.208,-0.118 0.208,-0.099 0.208,-0.08C0.208,-0.06 0.208,-0.042 0.207,-0.025C0.206,-0.008 0.198,-0 0.182,-0L0.068,-0Z" style="fill:#fff;fill-rule:nonzero;"/>
            </g>
            <g transform="matrix(2977.78,0,0,2977.78,9549.75,6253.69)">
                <path d="M0.026,-0.234C0.026,-0.284 0.036,-0.327 0.056,-0.365C0.076,-0.404 0.104,-0.434 0.14,-0.456C0.177,-0.477 0.22,-0.488 0.271,-0.488C0.32,-0.488 0.362,-0.477 0.397,-0.456C0.431,-0.434 0.458,-0.404 0.476,-0.366C0.494,-0.329 0.503,-0.286 0.503,-0.239C0.503,-0.19 0.494,-0.146 0.476,-0.108C0.458,-0.07 0.432,-0.04 0.396,-0.019C0.361,0.003 0.318,0.014 0.267,0.014C0.191,0.014 0.132,-0.009 0.089,-0.054C0.047,-0.099 0.026,-0.16 0.026,-0.234ZM0.196,-0.244C0.196,-0.23 0.198,-0.216 0.202,-0.2C0.207,-0.185 0.214,-0.171 0.224,-0.16C0.234,-0.149 0.248,-0.144 0.264,-0.144C0.283,-0.144 0.297,-0.149 0.307,-0.16C0.317,-0.171 0.324,-0.184 0.328,-0.2C0.332,-0.216 0.334,-0.231 0.334,-0.246C0.334,-0.26 0.332,-0.275 0.328,-0.29C0.324,-0.305 0.317,-0.318 0.307,-0.328C0.297,-0.338 0.284,-0.343 0.267,-0.343C0.249,-0.343 0.235,-0.338 0.225,-0.327C0.215,-0.317 0.207,-0.304 0.203,-0.289C0.198,-0.274 0.196,-0.259 0.196,-0.244Z" style="fill:#fff;fill-rule:nonzero;"/>
            </g>
        </g>
    </g>
</svg>
