<?xml version="1.0" encoding="UTF-8" standalone="no"?>
<!DOCTYPE svg PUBLIC "-//W3C//DTD SVG 1.1//EN" "http://www.w3.org/Graphics/SVG/1.1/DTD/svg11.dtd">
<svg width="100%" height="100%" viewBox="0 0 11112 11112" version="1.1" xmlns="http://www.w3.org/2000/svg" xmlns:xlink="http://www.w3.org/1999/xlink" xml:space="preserve" xmlns:serif="http://www.serif.com/" style="fill-rule:evenodd;clip-rule:evenodd;stroke-linejoin:round;stroke-miterlimit:2;">
    <g transform="matrix(1,0,0,1,-505.284,80.7808)">
        <g id="Layer1">
            <g>
                <g transform="matrix(2977.78,0,0,2977.78,1081.69,6253.69)">
                    <path d="M0.515,-0.196c0.006,-0 0.01,0.002 0.014,0.006c0.003,0.004 0.005,0.009 0.008,0.013c0.002,0.003 0.005,0.011 0.01,0.021c0.006,0.011 0.011,0.023 0.017,0.036c0.007,0.013 0.012,0.025 0.016,0.035c0.005,0.01 0.007,0.016 0.007,0.019c-0,0.005 -0.003,0.011 -0.009,0.016c-0.016,0.012 -0.035,0.023 -0.059,0.032c-0.024,0.008 -0.049,0.015 -0.074,0.019c-0.025,0.004 -0.047,0.006 -0.068,0.006c-0.071,0 -0.133,-0.015 -0.184,-0.046c-0.052,-0.031 -0.091,-0.073 -0.118,-0.127c-0.027,-0.054 -0.041,-0.117 -0.041,-0.187c0,-0.066 0.013,-0.126 0.037,-0.179c0.025,-0.053 0.061,-0.095 0.109,-0.126c0.048,-0.031 0.107,-0.046 0.177,-0.046c0.031,-0 0.065,0.004 0.102,0.012c0.037,0.009 0.069,0.021 0.095,0.039c0.004,0.002 0.007,0.004 0.009,0.007c0.002,0.003 0.003,0.007 0.003,0.011c0,0.003 -0.002,0.009 -0.006,0.021c-0.005,0.011 -0.01,0.024 -0.016,0.039c-0.006,0.014 -0.012,0.028 -0.017,0.04c-0.005,0.012 -0.009,0.02 -0.01,0.024c-0.002,0.004 -0.005,0.008 -0.007,0.011c-0.003,0.004 -0.007,0.006 -0.012,0.006c-0.007,-0 -0.015,-0.004 -0.027,-0.012c-0.011,-0.008 -0.024,-0.016 -0.039,-0.024c-0.015,-0.008 -0.032,-0.012 -0.05,-0.012c-0.034,-0 -0.063,0.009 -0.087,0.028c-0.023,0.019 -0.041,0.043 -0.053,0.072c-0.012,0.029 -0.018,0.06 -0.018,0.09c0,0.035 0.006,0.067 0.018,0.097c0.011,0.03 0.029,0.054 0.054,0.073c0.024,0.018 0.056,0.028 0.094,0.028c0.019,-0 0.037,-0.003 0.054,-0.009c0.017,-0.006 0.033,-0.013 0.049,-0.024c0.003,-0.002 0.007,-0.004 0.01,-0.006c0.004,-0.002 0.008,-0.003 0.012,-0.003Z" style="fill:#ffdf34;fill-rule:nonzero;"/>
                </g>
                <g transform="matrix(2977.78,0,0,2977.78,2936.99,6253.69)">
                    <path d="M0.026,-0.234c-0,-0.05 0.01,-0.093 0.03,-0.131c0.02,-0.039 0.048,-0.069 0.084,-0.091c0.037,-0.021 0.08,-0.032 0.131,-0.032c0.049,-0 0.091,0.011 0.126,0.032c0.034,0.022 0.061,0.052 0.079,0.09c0.018,0.037 0.027,0.08 0.027,0.127c0,0.049 -0.009,0.093 -0.027,0.131c-0.018,0.038 -0.044,0.068 -0.08,0.089c-0.035,0.022 -0.078,0.033 -0.129,0.033c-0.076,-0 -0.135,-0.023 -0.178,-0.068c-0.042,-0.045 -0.063,-0.106 -0.063,-0.18Zm0.17,-0.01c-0,0.014 0.002,0.028 0.006,0.044c0.005,0.015 0.012,0.029 0.022,0.04c0.01,0.011 0.024,0.016 0.04,0.016c0.019,-0 0.033,-0.005 0.043,-0.016c0.01,-0.011 0.017,-0.024 0.021,-0.04c0.004,-0.016 0.006,-0.031 0.006,-0.046c-0,-0.014 -0.002,-0.029 -0.006,-0.044c-0.004,-0.015 -0.011,-0.028 -0.021,-0.038c-0.01,-0.01 -0.023,-0.015 -0.04,-0.015c-0.018,0 -0.032,0.005 -0.042,0.016c-0.01,0.01 -0.018,0.023 -0.022,0.038c-0.005,0.015 -0.007,0.03 -0.007,0.045Z" style="fill:#ffdf34;fill-rule:nonzero;"/>
                </g>
                <g transform="matrix(2977.78,0,0,2977.78,4511.66,6253.69)">
                    <path d="M0.225,0.014c-0.047,-0 -0.085,-0.012 -0.114,-0.036c-0.029,-0.025 -0.05,-0.056 -0.064,-0.093c-0.014,-0.038 -0.021,-0.078 -0.021,-0.119c0,-0.045 0.008,-0.086 0.022,-0.125c0.015,-0.038 0.038,-0.069 0.069,-0.093c0.031,-0.024 0.071,-0.036 0.121,-0.036c0.045,0 0.087,0.015 0.125,0.044c0.001,0.001 0.003,0.002 0.004,0.003c0.002,0.001 0.003,0.002 0.005,0.002c0.003,0 0.004,-0.002 0.004,-0.005c0.001,-0.003 0.001,-0.005 0.001,-0.006l0.001,-0.249c0,-0.017 0.009,-0.025 0.025,-0.025l0.119,-0c0.017,-0 0.026,0.009 0.026,0.026c-0,0.018 -0,0.037 -0.001,0.055c-0.001,0.019 -0.001,0.037 -0.002,0.056c-0,0.038 -0.001,0.077 -0.001,0.116c-0,0.039 -0.001,0.077 -0.001,0.116c0,0.037 0.001,0.075 0.001,0.112c0,0.037 0.001,0.074 0.001,0.111c0.001,0.018 0.001,0.035 0.002,0.053c0,0.018 0,0.036 0,0.053c0,0.017 -0.008,0.026 -0.025,0.026l-0.127,0c-0.01,0 -0.016,-0.004 -0.017,-0.011c-0.001,-0.008 -0.001,-0.015 -0,-0.023c0.001,-0.008 -0.001,-0.011 -0.005,-0.011c-0.002,-0 -0.004,0 -0.006,0.002c-0.001,0.001 -0.003,0.002 -0.004,0.003c-0.02,0.018 -0.041,0.031 -0.064,0.04c-0.023,0.009 -0.047,0.014 -0.074,0.014Zm-0.028,-0.258c0,0.026 0.009,0.049 0.026,0.068c0.017,0.019 0.039,0.029 0.066,0.029c0.017,-0 0.033,-0.004 0.049,-0.01c0.016,-0.007 0.029,-0.017 0.039,-0.031c-0,-0.021 -0.001,-0.041 -0.001,-0.061l0,-0.06c-0.01,-0.014 -0.023,-0.024 -0.04,-0.03c-0.016,-0.006 -0.033,-0.009 -0.049,-0.009c-0.019,0 -0.034,0.005 -0.048,0.016c-0.013,0.01 -0.024,0.023 -0.031,0.039c-0.007,0.016 -0.011,0.032 -0.011,0.049Z" style="fill:#ffdf34;fill-rule:nonzero;"/>
                </g>
                <g transform="matrix(2977.78,0,0,2977.78,6268.09,6253.69)">
                    <path d="M0.276,0.014c-0.08,0 -0.141,-0.021 -0.185,-0.063c-0.043,-0.042 -0.065,-0.103 -0.065,-0.183c0,-0.05 0.009,-0.094 0.027,-0.133c0.018,-0.038 0.045,-0.068 0.08,-0.091c0.035,-0.022 0.079,-0.033 0.13,-0.033c0.065,0 0.114,0.018 0.146,0.055c0.032,0.036 0.054,0.084 0.064,0.144c-0,0.002 0,0.004 0,0.006c0,0.01 -0.005,0.017 -0.016,0.021l-0.247,0.085c-0.003,0.001 -0.005,0.003 -0.005,0.006c0,0.001 0,0.002 0.001,0.004c0.01,0.018 0.024,0.032 0.041,0.04c0.017,0.009 0.036,0.013 0.056,0.013c0.018,-0 0.036,-0.003 0.052,-0.009c0.016,-0.005 0.032,-0.012 0.048,-0.02c0.006,-0.003 0.011,-0.004 0.016,-0.004c0.005,-0 0.009,0.001 0.013,0.005c0.003,0.003 0.005,0.007 0.007,0.012l0.028,0.068c0.002,0.003 0.003,0.007 0.003,0.011c-0,0.004 -0.001,0.007 -0.003,0.01c-0.003,0.003 -0.005,0.005 -0.009,0.008c-0.023,0.016 -0.052,0.028 -0.087,0.036c-0.035,0.008 -0.066,0.012 -0.095,0.012Zm-0.084,-0.279c0.021,-0.007 0.042,-0.014 0.063,-0.021c0.02,-0.007 0.041,-0.014 0.062,-0.022c-0.004,-0.013 -0.011,-0.023 -0.02,-0.031c-0.009,-0.008 -0.02,-0.012 -0.035,-0.012c-0.025,0 -0.042,0.009 -0.053,0.027c-0.01,0.018 -0.015,0.038 -0.017,0.059Z" style="fill:#ffdf34;fill-rule:nonzero;"/>
                </g>
                <g transform="matrix(2977.78,0,0,2977.78,7759.88,6253.69)">
                    <path d="M0.068,-0c-0.017,-0 -0.026,-0.009 -0.026,-0.026c0,-0.017 0.001,-0.035 0.001,-0.053c0.001,-0.018 0.002,-0.035 0.002,-0.053c0.001,-0.037 0.001,-0.075 0.001,-0.112c0.001,-0.037 0.001,-0.074 0.001,-0.111c-0,-0.039 -0,-0.078 -0.001,-0.117c-0,-0.038 -0.001,-0.077 -0.002,-0.115c0,-0.019 -0,-0.038 -0.001,-0.056c-0.001,-0.019 -0.001,-0.037 -0.001,-0.055c-0,-0.017 0.008,-0.026 0.025,-0.026l0.115,-0c0.016,-0 0.024,0.008 0.025,0.025c0.001,0.021 0.001,0.042 0.001,0.063c-0,0.022 -0,0.043 0,0.064c0,0.044 0,0.089 0,0.134l0,0.133c0,0.006 0.002,0.009 0.006,0.009c0.001,0 0.003,-0 0.005,-0.001c0.039,-0.014 0.075,-0.033 0.108,-0.057c0.032,-0.024 0.054,-0.057 0.066,-0.1c0.002,-0.007 0.005,-0.013 0.009,-0.016c0.003,-0.004 0.009,-0.006 0.017,-0.006l0.132,-0c0.006,-0 0.012,0.001 0.017,0.004c0.005,0.003 0.007,0.008 0.007,0.015c0,0.002 -0,0.005 -0.001,0.008c-0.009,0.044 -0.025,0.081 -0.049,0.112c-0.024,0.031 -0.053,0.06 -0.088,0.086c-0.002,0.002 -0.003,0.004 -0.003,0.006c-0,0.001 0.004,0.008 0.012,0.021c0.008,0.013 0.018,0.029 0.03,0.048c0.013,0.019 0.025,0.038 0.038,0.057c0.012,0.019 0.049,0.075 0.052,0.08c0.003,0.003 0.005,0.007 0.007,0.011c0.002,0.004 0.003,0.008 0.003,0.012c-0,0.007 -0.004,0.012 -0.011,0.014c-0.008,0.001 -0.014,0.002 -0.02,0.002l-0.13,0c-0.008,0 -0.015,-0.003 -0.02,-0.01c-0.005,-0.005 -0.009,-0.011 -0.013,-0.017c-0.004,-0.006 -0.008,-0.012 -0.012,-0.017c-0.015,-0.02 -0.029,-0.04 -0.043,-0.06c-0.013,-0.02 -0.028,-0.039 -0.043,-0.058c-0.001,-0.002 -0.003,-0.004 -0.006,-0.004c-0,0 -0.001,0.001 -0.002,0.001c-0.001,0 -0.001,0.001 -0.002,0.001c-0.01,0.004 -0.02,0.008 -0.031,0.011c-0.01,0.003 -0.02,0.007 -0.03,0.011c-0.004,0.002 -0.005,0.004 -0.005,0.007c-0,0.017 -0,0.036 0,0.055c0,0.02 0,0.038 -0.001,0.055c-0.001,0.017 -0.009,0.025 -0.025,0.025l-0.114,0Z" style="fill:#fff;fill-rule:nonzero;"/>
                </g>
                <g transform="matrix(2977.78,0,0,2977.78,9549.75,6253.69)">
                    <path d="M0.026,-0.234c-0,-0.05 0.01,-0.093 0.03,-0.131c0.02,-0.039 0.048,-0.069 0.084,-0.091c0.037,-0.021 0.08,-0.032 0.131,-0.032c0.049,-0 0.091,0.011 0.126,0.032c0.034,0.022 0.061,0.052 0.079,0.09c0.018,0.037 0.027,0.08 0.027,0.127c0,0.049 -0.009,0.093 -0.027,0.131c-0.018,0.038 -0.044,0.068 -0.08,0.089c-0.035,0.022 -0.078,0.033 -0.129,0.033c-0.076,-0 -0.135,-0.023 -0.178,-0.068c-0.042,-0.045 -0.063,-0.106 -0.063,-0.18Zm0.17,-0.01c-0,0.014 0.002,0.028 0.006,0.044c0.005,0.015 0.012,0.029 0.022,0.04c0.01,0.011 0.024,0.016 0.04,0.016c0.019,-0 0.033,-0.005 0.043,-0.016c0.01,-0.011 0.017,-0.024 0.021,-0.04c0.004,-0.016 0.006,-0.031 0.006,-0.046c-0,-0.014 -0.002,-0.029 -0.006,-0.044c-0.004,-0.015 -0.011,-0.028 -0.021,-0.038c-0.01,-0.01 -0.023,-0.015 -0.04,-0.015c-0.018,0 -0.032,0.005 -0.042,0.016c-0.01,0.01 -0.018,0.023 -0.022,0.038c-0.005,0.015 -0.007,0.03 -0.007,0.045Z" style="fill:#fff;fill-rule:nonzero;"/>
                </g>
            </g>
        </g>
    </g>
</svg>
